<svg viewBox="0 0 109 165" fill="none" xmlns="http://www.w3.org/2000/svg">
<path d="M1.00291 56.2227C1.11535 29.7873 18.5144 7.65263 43.1374 2.26233C73.5226 -4.38952 101.519 16.0248 107.056 45.2127C109.136 56.0793 107.731 66.4585 103.318 76.5223C100.844 82.1706 97.8645 87.5609 94.8569 92.9226C85.0751 110.269 75.2653 127.587 65.4555 144.905C61.9981 151.012 58.5408 157.119 55.0835 163.226C55.0273 163.341 54.9711 163.427 54.8867 163.541C54.7743 163.713 54.7462 164 54.4932 164C54.2683 164 54.2121 163.713 54.0997 163.541C51.4294 158.839 48.7591 154.137 46.1169 149.435C44.0369 145.765 42.0131 142.066 39.9331 138.396C36.6163 132.547 33.2433 126.698 29.9546 120.849C23.5459 109.495 16.8279 98.2842 10.5317 86.8441C7.55216 81.4252 4.85377 75.8629 3.11105 69.8991C1.70562 65.2256 0.946698 60.4088 1.00291 56.2227ZM54.4932 13.1863C31.3038 13.1863 12.5273 32.2817 12.4992 55.9646C12.4711 79.6762 31.3038 98.8863 54.5213 98.8863C77.6545 98.8863 96.4591 79.7049 96.4872 56.1367C96.5153 32.3677 77.767 13.1863 54.4932 13.1863Z" stroke="black" />
</svg>
