<svg width="107" height="163" viewBox="0 0 107 163" fill="none" xmlns="http://www.w3.org/2000/svg">
<path d="M0.00291472 55.194C0.115348 28.7586 17.5145 6.62396 42.1374 1.26233C72.5226 -5.38952 100.519 15.0248 106.056 44.2127C108.136 55.0793 106.731 65.4585 102.318 75.5223C99.844 81.1707 96.8645 86.561 93.8569 91.9226C84.0751 109.269 74.2653 126.587 64.4555 143.905C60.9982 150.012 57.5408 156.119 54.0835 162.226C54.0273 162.341 53.9711 162.427 53.8867 162.541C53.7743 162.713 53.7462 163 53.4932 163C53.2683 163 53.2121 162.713 53.0997 162.541C50.4294 157.839 47.7591 153.137 45.1169 148.435C43.0369 144.765 41.0131 141.066 38.9331 137.396C35.6163 131.547 32.2433 125.698 28.9546 119.849C22.5459 108.495 15.8279 97.2842 9.53166 85.8442C6.55217 80.4252 3.85377 74.8629 2.11105 68.8991C0.705625 64.197 -0.0533021 59.3801 0.00291472 55.194ZM53.5213 12.1576C30.3319 12.1576 11.5555 31.253 11.5274 54.936C11.4993 78.6475 30.3038 97.8577 53.5494 97.8577C76.6826 97.8577 95.4872 78.6762 95.5153 55.108C95.5153 31.3391 76.767 12.1576 53.5213 12.1576Z" fill="black"/>
</svg>

