<svg viewBox="0 0 436 117" fill="none" xmlns="http://www.w3.org/2000/svg">
<path d="M75.9 94V23H105.3C108.367 23 111.167 23.6333 113.7 24.9C116.3 26.1667 118.533 27.9 120.4 30.1C122.333 32.2333 123.8 34.6333 124.8 37.3C125.867 39.9 126.4 42.5667 126.4 45.3C126.4 49.1667 125.533 52.8333 123.8 56.3C122.067 59.7 119.667 62.4667 116.6 64.6C113.533 66.7333 109.967 67.8 105.9 67.8H82.9V94H75.9ZM82.9 61.6H105.6C108.4 61.6 110.833 60.8333 112.9 59.3C114.967 57.7667 116.567 55.7667 117.7 53.3C118.833 50.8333 119.4 48.1667 119.4 45.3C119.4 42.3667 118.733 39.7 117.4 37.3C116.067 34.8333 114.3 32.8667 112.1 31.4C109.967 29.9333 107.6 29.2 105 29.2H82.9V61.6ZM136.707 31V21H143.507V31H136.707ZM136.707 94V41.9H143.507V94H136.707ZM202.284 94H195.484V64.9C195.484 58.7667 194.551 54.3 192.684 51.5C190.884 48.6333 188.084 47.2 184.284 47.2C181.618 47.2 178.984 47.8667 176.384 49.2C173.784 50.4667 171.484 52.2333 169.484 54.5C167.551 56.7 166.151 59.2333 165.284 62.1V94H158.484V41.9H164.684V53.7C166.751 49.9 169.784 46.8333 173.784 44.5C177.784 42.1667 182.118 41 186.784 41C190.651 41 193.718 41.9333 195.984 43.8C198.251 45.6 199.851 48.2 200.784 51.6C201.784 54.9333 202.284 58.9 202.284 63.5V94ZM218.185 94V23H242.285C249.818 23 256.085 24.6 261.085 27.8C266.152 30.9333 269.952 35.2 272.485 40.6C275.018 45.9333 276.285 51.8667 276.285 58.4C276.285 65.6 274.885 71.8667 272.085 77.2C269.285 82.5333 265.352 86.6667 260.285 89.6C255.218 92.5333 249.218 94 242.285 94H218.185ZM269.285 58.4C269.285 52.7333 268.218 47.7 266.085 43.3C264.018 38.9 260.952 35.4667 256.885 33C252.885 30.4667 248.018 29.2 242.285 29.2H225.185V87.8H242.285C248.152 87.8 253.085 86.5 257.085 83.9C261.085 81.3 264.118 77.8 266.185 73.4C268.252 69 269.285 64 269.285 58.4ZM314.27 47.9C309.736 48.0333 305.736 49.3 302.27 51.7C298.87 54.1 296.47 57.4 295.07 61.6V94H288.27V41.9H294.67V54.4C296.47 50.7333 298.836 47.7667 301.77 45.5C304.77 43.2333 307.936 41.9667 311.27 41.7C311.936 41.6333 312.503 41.6 312.97 41.6C313.436 41.6 313.87 41.6333 314.27 41.7V47.9ZM343.966 95C338.966 95 334.499 93.7667 330.566 91.3C326.699 88.8333 323.666 85.5667 321.466 81.5C319.266 77.3667 318.166 72.9 318.166 68.1C318.166 63.2333 319.266 58.7667 321.466 54.7C323.732 50.5667 326.799 47.2667 330.666 44.8C334.599 42.2667 339.032 41 343.966 41C348.966 41 353.399 42.2667 357.266 44.8C361.199 47.2667 364.266 50.5667 366.466 54.7C368.732 58.7667 369.866 63.2333 369.866 68.1C369.866 72.9 368.766 77.3667 366.566 81.5C364.366 85.5667 361.299 88.8333 357.366 91.3C353.499 93.7667 349.032 95 343.966 95ZM325.066 68.2C325.066 72.0667 325.899 75.6 327.566 78.8C329.299 81.9333 331.599 84.4333 334.466 86.3C337.332 88.1 340.499 89 343.966 89C347.432 89 350.599 88.0667 353.466 86.2C356.332 84.3333 358.632 81.8 360.366 78.6C362.099 75.4 362.966 71.8667 362.966 68C362.966 64.1333 362.099 60.6 360.366 57.4C358.632 54.2 356.332 51.6667 353.466 49.8C350.599 47.9333 347.432 47 343.966 47C340.566 47 337.432 47.9667 334.566 49.9C331.699 51.7667 329.399 54.3 327.666 57.5C325.932 60.7 325.066 64.2667 325.066 68.2ZM407.838 95C403.505 95 399.605 93.8667 396.138 91.6C392.738 89.3333 390.038 86.5333 388.038 83.2V115.3H381.238V41.9H387.338V52C389.405 48.7333 392.138 46.1 395.538 44.1C399.005 42.0333 402.738 41 406.738 41C410.338 41 413.638 41.7667 416.638 43.3C419.638 44.7667 422.238 46.7667 424.438 49.3C426.705 51.8333 428.438 54.7333 429.638 58C430.838 61.2 431.438 64.5333 431.438 68C431.438 72.8667 430.438 77.3667 428.438 81.5C426.505 85.5667 423.738 88.8333 420.138 91.3C416.605 93.7667 412.505 95 407.838 95ZM405.938 89C409.738 89 413.005 88 415.738 86C418.538 83.9333 420.705 81.3 422.238 78.1C423.772 74.9 424.538 71.5333 424.538 68C424.538 64.2667 423.672 60.8 421.938 57.6C420.205 54.4 417.872 51.8333 414.938 49.9C412.072 47.9667 408.805 47 405.138 47C402.872 47 400.472 47.6 397.938 48.8C395.472 49.9333 393.272 51.5 391.338 53.5C389.472 55.4333 388.372 57.5667 388.038 59.9V75.9C389.572 79.5667 391.972 82.6667 395.238 85.2C398.505 87.7333 402.072 89 405.938 89Z" />
</svg>
